<svg width="457" height="100" viewBox="0 0 457 100" fill="none" xmlns="http://www.w3.org/2000/svg">
<path d="M4.88636 21.6364V19.8182H44.2045V21.6364H25.4545V78H23.6364V21.6364H4.88636ZM58.608 48.6818V78H56.7898V19.8182H58.608V41.2955H58.8352C59.858 39.0227 61.5341 37.2045 63.8636 35.8409C66.2121 34.4773 68.892 33.7955 71.9034 33.7955C74.8201 33.7955 77.3958 34.4299 79.6307 35.6989C81.8655 36.9678 83.6174 38.7197 84.8864 40.9545C86.1553 43.1894 86.7898 45.7652 86.7898 48.6818V78H84.9716V48.6818C84.9716 44.8182 83.7595 41.6742 81.3352 39.25C78.911 36.8258 75.767 35.6136 71.9034 35.6136C69.3277 35.6136 67.036 36.1723 65.0284 37.2898C63.0398 38.4072 61.4678 39.9508 60.3125 41.9205C59.1761 43.8902 58.608 46.1439 58.608 48.6818ZM102.486 78V34.3636H104.304V78H102.486ZM103.395 26.4091C102.902 26.4091 102.476 26.2292 102.116 25.8693C101.757 25.5095 101.577 25.0833 101.577 24.5909C101.577 24.0985 101.757 23.6723 102.116 23.3125C102.476 22.9527 102.902 22.7727 103.395 22.7727C103.887 22.7727 104.313 22.9527 104.673 23.3125C105.033 23.6723 105.213 24.0985 105.213 24.5909C105.213 25.0833 105.033 25.5095 104.673 25.8693C104.313 26.2292 103.887 26.4091 103.395 26.4091ZM121.811 48.6818V78H119.993V34.3636H121.811V41.2955H122.038C123.061 39.0227 124.737 37.2045 127.067 35.8409C129.415 34.4773 132.095 33.7955 135.107 33.7955C138.023 33.7955 140.599 34.4299 142.834 35.6989C145.069 36.9678 146.821 38.7197 148.089 40.9545C149.358 43.1894 149.993 45.7652 149.993 48.6818V78H148.175V48.6818C148.175 44.8182 146.963 41.6742 144.538 39.25C142.114 36.8258 138.97 35.6136 135.107 35.6136C132.531 35.6136 130.239 36.1723 128.232 37.2898C126.243 38.4072 124.671 39.9508 123.516 41.9205C122.379 43.8902 121.811 46.1439 121.811 48.6818ZM166.825 78V19.8182H168.643V48H205.689V19.8182H207.507V78H205.689V49.8182H168.643V78H166.825ZM235.199 78.9091C232.813 78.9091 230.606 78.4167 228.58 77.4318C226.572 76.447 224.953 75.0076 223.722 73.1136C222.509 71.2197 221.903 68.9091 221.903 66.1818C221.903 64.7045 222.14 63.322 222.614 62.0341C223.087 60.7273 223.92 59.5436 225.114 58.483C226.307 57.4223 227.973 56.5133 230.114 55.7557C232.273 54.9981 235.028 54.4205 238.381 54.0227C240.388 53.7955 242.282 53.5303 244.062 53.2273C245.843 52.9242 247.292 52.4697 248.409 51.8636C249.527 51.2576 250.085 50.3864 250.085 49.25V46.6364C250.085 43.2841 248.958 40.5947 246.705 38.5682C244.451 36.5227 241.449 35.5 237.699 35.5C234.631 35.5 231.951 36.1818 229.659 37.5455C227.367 38.8902 225.767 40.7841 224.858 43.2273L223.153 42.5455C223.835 40.7273 224.886 39.1553 226.307 37.8295C227.727 36.5038 229.413 35.4811 231.364 34.7614C233.314 34.0417 235.426 33.6818 237.699 33.6818C239.915 33.6818 241.894 34.0133 243.636 34.6761C245.398 35.3201 246.894 36.2292 248.125 37.4034C249.356 38.5587 250.294 39.9223 250.938 41.4943C251.581 43.0663 251.903 44.7803 251.903 46.6364V78H250.085V69.1364H249.858C248.949 71.1061 247.765 72.8295 246.307 74.3068C244.867 75.7652 243.201 76.9015 241.307 77.7159C239.432 78.5114 237.396 78.9091 235.199 78.9091ZM235.199 77.0909C237.964 77.0909 240.473 76.3523 242.727 74.875C244.981 73.3788 246.771 71.3049 248.097 68.6534C249.422 65.983 250.085 62.8864 250.085 59.3636V52.7727C249.555 53.1705 248.911 53.5208 248.153 53.8239C247.415 54.1269 246.572 54.4015 245.625 54.6477C244.697 54.875 243.684 55.0739 242.585 55.2443C241.487 55.4148 240.312 55.5758 239.062 55.7273C235.161 56.1818 232.093 56.8731 229.858 57.8011C227.623 58.7292 226.042 59.8939 225.114 61.2955C224.186 62.697 223.722 64.3258 223.722 66.1818C223.722 69.4773 224.82 72.1193 227.017 74.108C229.233 76.0966 231.96 77.0909 235.199 77.0909ZM267.571 78V34.3636H269.389V41.2955H269.616C270.639 39.0227 272.315 37.2045 274.645 35.8409C276.993 34.4773 279.673 33.7955 282.685 33.7955C282.912 33.7955 283.063 33.7955 283.139 33.7955C283.215 33.7955 283.366 33.7955 283.594 33.7955V35.6136C283.366 35.6136 283.215 35.6136 283.139 35.6136C283.063 35.6136 282.912 35.6136 282.685 35.6136C280.109 35.6136 277.817 36.1723 275.81 37.2898C273.821 38.4072 272.249 39.9508 271.094 41.9205C269.957 43.8902 269.389 46.1439 269.389 48.6818V78H267.571ZM295.405 48.6818V78H293.587V34.3636H295.405V41.2955H295.632C296.655 39.0227 298.331 37.2045 300.661 35.8409C303.009 34.4773 305.689 33.7955 308.7 33.7955C311.617 33.7955 314.193 34.4299 316.428 35.6989C318.662 36.9678 320.414 38.7197 321.683 40.9545C322.952 43.1894 323.587 45.7652 323.587 48.6818V78H321.768V48.6818C321.768 44.8182 320.556 41.6742 318.132 39.25C315.708 36.8258 312.564 35.6136 308.7 35.6136C306.125 35.6136 303.833 36.1723 301.825 37.2898C299.837 38.4072 298.265 39.9508 297.109 41.9205C295.973 43.8902 295.405 46.1439 295.405 48.6818ZM355.419 78.9091C351.612 78.9091 348.279 77.9148 345.419 75.9261C342.578 73.9375 340.372 71.2386 338.8 67.8295C337.228 64.4205 336.442 60.5758 336.442 56.2955C336.442 52.0152 337.228 48.1705 338.8 44.7614C340.391 41.3523 342.55 38.6534 345.277 36.6648C348.004 34.6761 351.082 33.6818 354.51 33.6818C357.048 33.6818 359.396 34.2216 361.555 35.3011C363.733 36.3807 365.627 37.8769 367.237 39.7898C368.847 41.7027 370.097 43.9091 370.987 46.4091C371.896 48.8902 372.351 51.5417 372.351 54.3636V56.1818H337.351V54.3636H370.533C370.533 50.8598 369.813 47.6875 368.374 44.8466C366.934 41.9867 365.002 39.714 362.578 38.0284C360.154 36.3428 357.464 35.5 354.51 35.5C351.518 35.5 348.809 36.3902 346.385 38.1705C343.961 39.9508 342.019 42.375 340.561 45.4432C339.103 48.5114 338.336 51.9773 338.26 55.8409V56.0682C338.26 59.875 338.923 63.3788 340.249 66.5795C341.593 69.7614 343.544 72.3087 346.101 74.2216C348.658 76.1345 351.764 77.0909 355.419 77.0909C358.108 77.0909 360.362 76.6174 362.18 75.6705C364.018 74.7235 365.485 73.6345 366.584 72.4034C367.701 71.1723 368.525 70.1212 369.055 69.25L370.533 70.2727C369.889 71.3712 368.923 72.5928 367.635 73.9375C366.347 75.2822 364.699 76.447 362.692 77.4318C360.684 78.4167 358.26 78.9091 355.419 78.9091ZM411.364 43.5682L409.545 44.0227C408.958 42.1288 408.134 40.5568 407.074 39.3068C406.032 38.0379 404.754 37.0909 403.239 36.4659C401.723 35.822 399.962 35.5 397.955 35.5C394.47 35.5 391.648 36.3902 389.489 38.1705C387.33 39.9318 386.25 42.2614 386.25 45.1591C386.25 47.4508 386.979 49.3731 388.438 50.9261C389.915 52.4792 392.14 53.625 395.114 54.3636L401.932 56.0682C405.133 56.8636 407.557 58.2083 409.205 60.1023C410.871 61.9962 411.705 64.2879 411.705 66.9773C411.705 69.3447 411.08 71.428 409.83 73.2273C408.598 75.0265 406.894 76.428 404.716 77.4318C402.538 78.4167 400.019 78.9091 397.159 78.9091C393.277 78.9091 390.104 77.9621 387.642 76.0682C385.18 74.1742 383.58 71.4848 382.841 68L384.659 67.5455C385.303 70.6326 386.676 73 388.778 74.6477C390.9 76.2765 393.693 77.0909 397.159 77.0909C400.947 77.0909 404.015 76.1629 406.364 74.3068C408.712 72.4508 409.886 70.0076 409.886 66.9773C409.886 64.7235 409.186 62.8201 407.784 61.267C406.383 59.714 404.28 58.5871 401.477 57.8864L394.659 56.1818C391.307 55.3485 388.759 53.9848 387.017 52.0909C385.294 50.197 384.432 47.8864 384.432 45.1591C384.432 42.8674 385 40.8693 386.136 39.1648C387.292 37.4413 388.883 36.0966 390.909 35.1307C392.955 34.1648 395.303 33.6818 397.955 33.6818C401.326 33.6818 404.138 34.5151 406.392 36.1818C408.646 37.8295 410.303 40.2917 411.364 43.5682ZM450.817 43.5682L448.999 44.0227C448.411 42.1288 447.588 40.5568 446.527 39.3068C445.485 38.0379 444.207 37.0909 442.692 36.4659C441.177 35.822 439.415 35.5 437.408 35.5C433.923 35.5 431.101 36.3902 428.942 38.1705C426.783 39.9318 425.703 42.2614 425.703 45.1591C425.703 47.4508 426.432 49.3731 427.891 50.9261C429.368 52.4792 431.593 53.625 434.567 54.3636L441.385 56.0682C444.586 56.8636 447.01 58.2083 448.658 60.1023C450.324 61.9962 451.158 64.2879 451.158 66.9773C451.158 69.3447 450.533 71.428 449.283 73.2273C448.052 75.0265 446.347 76.428 444.169 77.4318C441.991 78.4167 439.472 78.9091 436.612 78.9091C432.73 78.9091 429.557 77.9621 427.095 76.0682C424.633 74.1742 423.033 71.4848 422.294 68L424.112 67.5455C424.756 70.6326 426.129 73 428.232 74.6477C430.353 76.2765 433.146 77.0909 436.612 77.0909C440.4 77.0909 443.468 76.1629 445.817 74.3068C448.165 72.4508 449.339 70.0076 449.339 66.9773C449.339 64.7235 448.639 62.8201 447.237 61.267C445.836 59.714 443.733 58.5871 440.93 57.8864L434.112 56.1818C430.76 55.3485 428.213 53.9848 426.47 52.0909C424.747 50.197 423.885 47.8864 423.885 45.1591C423.885 42.8674 424.453 40.8693 425.589 39.1648C426.745 37.4413 428.336 36.0966 430.362 35.1307C432.408 34.1648 434.756 33.6818 437.408 33.6818C440.779 33.6818 443.591 34.5151 445.845 36.1818C448.099 37.8295 449.756 40.2917 450.817 43.5682Z" fill="black"></path>
<circle cx="31.5" cy="97.5" r="2.5" fill="black"></circle>
<circle cx="437.5" cy="97.5" r="2.5" fill="black"></circle>
<rect x="32" y="97" width="406" height="1" fill="black"></rect>
</svg>